<svg xmlns="http://www.w3.org/2000/svg" width="18.5" height="18.5" viewBox="0 0 18.5 18.5"><path d="M17.6,6.042A3.865,3.865,0,0,1,21.458,9.9V17.6A3.865,3.865,0,0,1,17.6,21.458H9.9A3.865,3.865,0,0,1,6.042,17.6V9.9A3.865,3.865,0,0,1,9.9,6.042H17.6m0-1.542H9.9A5.412,5.412,0,0,0,4.5,9.9V17.6A5.412,5.412,0,0,0,9.9,23H17.6A5.412,5.412,0,0,0,23,17.6V9.9a5.412,5.412,0,0,0-5.4-5.4Z" transform="translate(-4.5 -4.5)"/><path d="M24.781,11.312a1.156,1.156,0,1,1,1.156-1.156A1.153,1.153,0,0,1,24.781,11.312Z" transform="translate(-10.521 -5.917)"/><path d="M15.875,12.792a3.083,3.083,0,1,1-3.083,3.083,3.086,3.086,0,0,1,3.083-3.083m0-1.542A4.625,4.625,0,1,0,20.5,15.875a4.626,4.626,0,0,0-4.625-4.625Z" transform="translate(-6.625 -6.625)"/></svg>