<svg xmlns="http://www.w3.org/2000/svg" width="18.291" height="17.196" viewBox="0 0 18.291 17.196"><path d="M18.25,14.558c-.186.434-.973.753-2.406.976a6.7,6.7,0,0,0-.232.856.414.414,0,0,1-.433.317h-.011c-.336,0-.686-.154-1.388-.154a2.827,2.827,0,0,0-2.01.736,4.024,4.024,0,0,1-2.645.979,4.1,4.1,0,0,1-2.6-.979,2.824,2.824,0,0,0-2.009-.735,13.493,13.493,0,0,0-1.388.169.424.424,0,0,1-.444-.323,6.618,6.618,0,0,0-.233-.862c-.739-.115-2.4-.405-2.447-1.149a.38.38,0,0,1,.317-.4,5.378,5.378,0,0,0,3.652-3.07l.008-.018a.812.812,0,0,0,.088-.67c-.18-.425-.96-.577-1.288-.707-.847-.335-.965-.719-.915-.983a.92.92,0,0,1,1.179-.552,2.044,2.044,0,0,0,.841.225.729.729,0,0,0,.356-.078c-.073-1.284-.254-3.118.2-4.143A4.867,4.867,0,0,1,8.961,1.081l.361,0a4.834,4.834,0,0,1,4.527,2.917c.456,1.024.277,2.851.2,4.144a.7.7,0,0,0,.307.076,2.134,2.134,0,0,0,.788-.224.967.967,0,0,1,.732,0h0a.742.742,0,0,1,.557.638c.007.348-.3.649-.924.894-.076.03-.168.059-.266.09-.35.111-.879.279-1.022.617a.811.811,0,0,0,.088.67l.009.018a5.376,5.376,0,0,0,3.652,3.07A.39.39,0,0,1,18.25,14.558Z" transform="translate(0 -1.078)"/></svg>