<svg xmlns="http://www.w3.org/2000/svg" width="18.697" height="15.186" viewBox="0 0 18.697 15.186"><path d="M16.775,7.165c.012.166.012.332.012.5a10.828,10.828,0,0,1-10.9,10.9A10.829,10.829,0,0,1,0,16.846a7.928,7.928,0,0,0,.925.047,7.674,7.674,0,0,0,4.757-1.637A3.839,3.839,0,0,1,2.1,12.6a4.832,4.832,0,0,0,.724.059,4.053,4.053,0,0,0,1.008-.13A3.833,3.833,0,0,1,.759,8.767V8.72a3.859,3.859,0,0,0,1.732.486A3.838,3.838,0,0,1,1.3,4.081a10.892,10.892,0,0,0,7.9,4.01,4.326,4.326,0,0,1-.095-.878,3.836,3.836,0,0,1,6.632-2.622,7.545,7.545,0,0,0,2.432-.925,3.822,3.822,0,0,1-1.685,2.112A7.682,7.682,0,0,0,18.7,5.184,8.237,8.237,0,0,1,16.775,7.165Z" transform="translate(0 -3.381)"/></svg>