<svg xmlns="http://www.w3.org/2000/svg" width="24" height="14" viewBox="0 0 24 14"><g transform="translate(-4.5 -10.125)"><path d="M27.5,12.375H5.5a1.071,1.071,0,0,1-1-1.125h0a1.071,1.071,0,0,1,1-1.125h22a1.071,1.071,0,0,1,1,1.125h0A1.071,1.071,0,0,1,27.5,12.375Z" fill="#fff"/><path d="M27.5,19.125H5.5A1.071,1.071,0,0,1,4.5,18h0a1.071,1.071,0,0,1,1-1.125h22A1.071,1.071,0,0,1,28.5,18h0A1.071,1.071,0,0,1,27.5,19.125Z" transform="translate(0 -0.875)" fill="#fff"/><path d="M27.5,25.875H5.5a1.071,1.071,0,0,1-1-1.125h0a1.071,1.071,0,0,1,1-1.125h22a1.071,1.071,0,0,1,1,1.125h0A1.071,1.071,0,0,1,27.5,25.875Z" transform="translate(0 -1.75)" fill="#fff"/></g></svg>