<svg xmlns="http://www.w3.org/2000/svg" width="18.315" height="18.315" viewBox="0 0 18.315 18.315"><path d="M18.315,9.72A9.158,9.158,0,0,1,6.447,18.467a10.294,10.294,0,0,0,1.137-2.4c.111-.428.569-2.179.569-2.179a2.453,2.453,0,0,0,2.1,1.052c2.762,0,4.752-2.54,4.752-5.7A5.375,5.375,0,0,0,9.357,3.956C5.406,3.956,3.3,6.607,3.3,9.5a4.109,4.109,0,0,0,1.857,3.548c.174.081.266.044.306-.122.03-.126.185-.75.255-1.038a.274.274,0,0,0-.063-.262,3.606,3.606,0,0,1-.676-2.09A3.963,3.963,0,0,1,9.12,5.562a3.615,3.615,0,0,1,3.825,3.726c0,2.478-1.252,4.195-2.88,4.195a1.328,1.328,0,0,1-1.355-1.654,18.4,18.4,0,0,0,.757-3.05A1.15,1.15,0,0,0,8.308,7.49c-.919,0-1.658.949-1.658,2.223a3.3,3.3,0,0,0,.273,1.359s-.9,3.833-1.071,4.549a8.864,8.864,0,0,0-.033,2.629,9.158,9.158,0,1,1,12.5-8.53Z" transform="translate(0 -0.563)"/></svg>