<svg xmlns="http://www.w3.org/2000/svg" width="17.609" height="16.554" viewBox="0 0 17.609 16.554"><path d="M17.569,14.056c-.179.418-.937.725-2.317.94a6.451,6.451,0,0,0-.224.824.4.4,0,0,1-.417.305H14.6c-.323,0-.66-.149-1.336-.149a2.722,2.722,0,0,0-1.935.708,3.873,3.873,0,0,1-2.546.942,3.95,3.95,0,0,1-2.506-.942,2.719,2.719,0,0,0-1.934-.708,12.99,12.99,0,0,0-1.336.162.408.408,0,0,1-.427-.311A6.371,6.371,0,0,0,2.356,15c-.711-.11-2.315-.39-2.356-1.106a.365.365,0,0,1,.305-.381,5.177,5.177,0,0,0,3.516-2.955l.008-.018a.782.782,0,0,0,.085-.645c-.174-.409-.924-.556-1.24-.681-.816-.322-.929-.692-.881-.946a.885.885,0,0,1,1.135-.531,1.968,1.968,0,0,0,.81.217.7.7,0,0,0,.343-.075c-.07-1.236-.244-3,.2-3.988a4.686,4.686,0,0,1,4.35-2.806l.348,0a4.653,4.653,0,0,1,4.358,2.808c.439.985.267,2.744.2,3.99a.674.674,0,0,0,.3.074,2.055,2.055,0,0,0,.759-.215.931.931,0,0,1,.7,0h0a.714.714,0,0,1,.536.615c.006.335-.293.625-.89.86-.073.029-.161.057-.256.087-.337.107-.846.268-.984.594a.781.781,0,0,0,.085.645l.008.018A5.176,5.176,0,0,0,17.3,13.51.375.375,0,0,1,17.569,14.056Z" transform="translate(0 -1.078)" fill="#999"/></svg>