<svg xmlns="http://www.w3.org/2000/svg" width="17.81" height="17.81" viewBox="0 0 17.81 17.81"><g transform="translate(-4.5 -4.5)"><path d="M17.115,5.984a3.721,3.721,0,0,1,3.71,3.71v7.421a3.721,3.721,0,0,1-3.71,3.71H9.695a3.721,3.721,0,0,1-3.71-3.71V9.695a3.721,3.721,0,0,1,3.71-3.71h7.421m0-1.484H9.695A5.21,5.21,0,0,0,4.5,9.695v7.421A5.21,5.21,0,0,0,9.695,22.31h7.421a5.21,5.21,0,0,0,5.195-5.195V9.695A5.21,5.21,0,0,0,17.115,4.5Z"/><path d="M24.738,11.226a1.113,1.113,0,1,1,1.113-1.113A1.11,1.11,0,0,1,24.738,11.226Z" transform="translate(-6.51 -1.532)"/><path d="M15.7,12.734A2.968,2.968,0,1,1,12.734,15.7,2.971,2.971,0,0,1,15.7,12.734m0-1.484A4.452,4.452,0,1,0,20.155,15.7,4.454,4.454,0,0,0,15.7,11.25Z" transform="translate(-2.298 -2.298)"/></g></svg>