<svg xmlns="http://www.w3.org/2000/svg" width="17.631" height="17.631" viewBox="0 0 17.631 17.631"><path d="M17.631,9.378A8.817,8.817,0,0,1,6.207,17.8,9.91,9.91,0,0,0,7.3,15.489c.107-.412.547-2.1.547-2.1A2.361,2.361,0,0,0,9.868,14.4c2.659,0,4.575-2.446,4.575-5.485a5.174,5.174,0,0,0-5.435-5.09c-3.8,0-5.826,2.552-5.826,5.336A3.956,3.956,0,0,0,4.97,12.581c.167.078.256.043.3-.117.028-.121.178-.722.245-1a.264.264,0,0,0-.06-.252A3.472,3.472,0,0,1,4.8,9.2,3.815,3.815,0,0,1,8.78,5.376a3.48,3.48,0,0,1,3.683,3.587C12.463,11.348,11.258,13,9.69,13a1.279,1.279,0,0,1-1.3-1.593,17.714,17.714,0,0,0,.729-2.936A1.107,1.107,0,0,0,8,7.231c-.885,0-1.6.914-1.6,2.14a3.177,3.177,0,0,0,.263,1.308s-.871,3.69-1.031,4.379A8.533,8.533,0,0,0,5.6,17.59,8.817,8.817,0,1,1,17.631,9.378Z" transform="translate(0 -0.563)"/></svg>