<svg xmlns="http://www.w3.org/2000/svg" width="10.83" height="18.23" viewBox="0 0 10.83 18.23"><path d="M11.3,17.1A5.1,5.1,0,0,1,7.837,18.23c-4.3,0-5.234-3.162-5.234-5.006V8.1H.912A.357.357,0,0,1,.555,7.74V5.319a.6.6,0,0,1,.4-.57,4.528,4.528,0,0,0,3-4.169C3.988.189,4.191,0,4.532,0H7.057a.357.357,0,0,1,.356.356v4.1h2.955a.354.354,0,0,1,.356.352V7.719a.357.357,0,0,1-.356.356H7.4v4.743c0,1.218.844,1.908,2.421,1.275a.75.75,0,0,1,.452-.078.384.384,0,0,1,.263.281l.783,2.289C11.383,16.763,11.436,16.962,11.3,17.1Z" transform="translate(-0.555)" fill="#999"/></svg>