<svg xmlns="http://www.w3.org/2000/svg" width="19.91" height="13.999" viewBox="0 0 19.91 13.999"><path d="M20.544,6.69a2.5,2.5,0,0,0-1.76-1.772C17.231,4.5,11,4.5,11,4.5s-6.226,0-7.779.419A2.5,2.5,0,0,0,1.466,6.69a26.244,26.244,0,0,0-.416,4.823,26.244,26.244,0,0,0,.416,4.823,2.464,2.464,0,0,0,1.76,1.743C4.779,18.5,11,18.5,11,18.5s6.226,0,7.779-.419a2.464,2.464,0,0,0,1.76-1.743,26.244,26.244,0,0,0,.416-4.823,26.244,26.244,0,0,0-.416-4.823ZM8.969,14.474V8.553l5.2,2.96-5.2,2.96Z" transform="translate(-1.05 -4.5)" fill="#999"/></svg>