<svg xmlns="http://www.w3.org/2000/svg" width="74" height="109" viewBox="0 0 74 109"><g transform="translate(-358 -684)"><rect width="74" height="109" transform="translate(358 684)" fill="#ec1d24"/><g transform="translate(365.965 692.385)" fill="#fff"><path d="M 57.48602676391602 91.85006713867188 L 42.8139762878418 91.85006713867188 L 42.8139762878418 50.26756286621094 L 41.82700347900391 50.15420913696289 L 32.12131881713867 91.85006713867188 L 25.4825267791748 91.85006713867188 L 16.94468307495117 50.16723251342773 L 15.95484828948975 50.26756286621094 L 15.95484828948975 91.85006713867188 L 0.5000016093254089 91.85006713867188 L 0.5000016093254089 0.8892670273780823 L 19.9527759552002 0.8892670273780823 L 27.71654319763184 46.06509017944336 L 28.70136642456055 46.06921005249023 L 36.8554573059082 0.8892670273780823 L 57.48602676391602 0.8892670273780823 L 57.48602676391602 91.85006713867188 Z" stroke="none"/><path d="M 56.98602676391602 91.35006713867188 L 56.98602676391602 1.389267086982727 L 37.27330017089844 1.389267086982727 L 29.19342613220215 46.15801620483398 L 27.22377586364746 46.1497802734375 L 19.53138732910156 1.389267086982727 L 1.000000834465027 1.389267086982727 L 1.000000834465027 91.35006713867188 L 15.4548511505127 91.35006713867188 L 15.4548511505127 50.26755523681641 L 17.43451309204102 50.06689071655273 L 25.89049911499023 91.35006713867188 L 31.72433853149414 91.35006713867188 L 41.34001159667969 50.04084014892578 L 43.3139762878418 50.26755523681641 L 43.3139762878418 91.35006713867188 L 56.98602676391602 91.35006713867188 M 57.98602676391602 92.35006713867188 L 42.3139762878418 92.35006713867188 L 42.3139762878418 50.26755523681641 L 32.5182991027832 92.35006713867188 L 25.07456398010254 92.35006713867188 L 16.4548511505127 50.26755523681641 L 16.4548511505127 92.35006713867188 L 8.819579875307682e-07 92.35006713867188 L 8.819579875307682e-07 0.3892670571804047 L 20.37418746948242 0.3892670571804047 L 28.20932579040527 45.98040390014648 L 36.43762588500977 0.3892670571804047 L 57.98602676391602 0.3892670571804047 L 57.98602676391602 92.35006713867188 Z" stroke="none" fill="#fff"/></g></g></svg>