<svg xmlns="http://www.w3.org/2000/svg" width="130" height="52" viewBox="0 0 130 52"><g transform="translate(-358 -684)"><rect width="130" height="52" transform="translate(358 684)" fill="#ec1d24"/><g transform="translate(361.8 688)" fill="#fff"><path d="M 121.3666763305664 43.55691909790039 L 108.1612701416016 43.55691909790039 L 108.1612701416016 0.6857038140296936 L 115.0112915039063 0.6857038140296936 L 115.0112915039063 35.87759780883789 L 115.0112915039063 36.37759780883789 L 115.5112915039063 36.37759780883789 L 121.3666763305664 36.37759780883789 L 121.3666763305664 43.55691909790039 Z M 105.0585174560547 43.55691909790039 L 91.80683898925781 43.55691909790039 L 91.80683898925781 0.6857038140296936 L 105.0585174560547 0.6857038140296936 L 105.0585174560547 7.368149757385254 L 99.01642608642578 7.368149757385254 L 98.51642608642578 7.368149757385254 L 98.51642608642578 7.868149757385254 L 98.51642608642578 17.81750297546387 L 98.51642608642578 18.31750297546387 L 99.01642608642578 18.31750297546387 L 105.0585174560547 18.31750297546387 L 105.0585174560547 25.23081207275391 L 99.01642608642578 25.23081207275391 L 98.51642608642578 25.23081207275391 L 98.51642608642578 25.73081207275391 L 98.51642608642578 35.91188812255859 L 98.51642608642578 36.41188812255859 L 99.01642608642578 36.41188812255859 L 105.0585174560547 36.41188812255859 L 105.0585174560547 43.55691909790039 Z M 84.10221862792969 43.55691909790039 L 76.0809326171875 43.55691909790039 L 69.46027374267578 0.6857038140296936 L 76.14934539794922 0.6857038140296936 L 79.59588623046875 26.73161125183105 L 80.58468627929688 26.74870300292969 L 84.95407867431641 0.6857038140296936 L 90.72369384765625 0.6857038140296936 L 84.10221862792969 43.55691909790039 Z M 27.16305732727051 43.55691909790039 L 20.68648910522461 43.55691909790039 L 20.68648910522461 23.98085784912109 L 19.69950294494629 23.86750411987305 L 15.11633491516113 43.55691909790039 L 12.37014865875244 43.55691909790039 L 8.33985710144043 23.88051986694336 L 7.350026607513428 23.98085784912109 L 7.350026607513428 43.55691909790039 L 0.4999958872795105 43.55691909790039 L 0.4999958872795105 0.6857038140296936 L 9.298399925231934 0.6857038140296936 L 12.96488857269287 22.02030372619629 L 13.94970321655273 22.02441215515137 L 17.8009204864502 0.6857038140296936 L 27.16305732727051 0.6857038140296936 L 27.16305732727051 37.36405944824219 L 28.15787315368652 37.43584060668945 L 33.51583099365234 0.4999960958957672 L 43.48740768432617 0.4999960958957672 L 49.33282470703125 43.55685424804688 L 43.14461135864258 43.55613708496094 L 42.27030181884766 37.29490280151367 L 42.21013259887695 36.86405944824219 L 41.77510452270508 36.86405944824219 L 35.79401016235352 36.86405944824219 L 35.35898208618164 36.86405944824219 L 35.29881286621094 37.29490280151367 L 34.42449951171875 43.55608749389648 L 27.66305732727051 43.55608749389648 L 27.16305732727051 43.55608749389648 L 27.16305732727051 43.55691909790039 Z M 38.18114852905273 10.18967342376709 L 38.12419509887695 10.62590408325195 L 35.55461120605469 30.60827255249023 L 35.48212051391602 31.17204284667969 L 36.05053329467773 31.17204284667969 L 41.5412712097168 31.17204284667969 L 42.11965560913086 31.17204284667969 L 42.0360107421875 30.59973526000977 L 39.11570358276367 10.61736488342285 L 39.0532112121582 10.18967342376709 L 38.62096405029297 10.18967342376709 L 38.18114852905273 10.18967342376709 Z M 57.25607299804688 43.55686569213867 L 50.40519714355469 43.5561408996582 L 50.40519714355469 0.4999960958957672 L 59.52960586547852 0.4999960958957672 C 59.94091033935547 0.667289137840271 61.92573547363281 1.51902973651886 64.03499603271484 3.180811405181885 C 65.43444061279297 4.283657550811768 66.62519836425781 5.526642322540283 67.57413482666016 6.875195980072021 C 68.75588989257813 8.553950309753418 69.56417846679688 10.40314960479736 69.97660827636719 12.37151908874512 C 70.38965606689453 14.34278106689453 70.41828918457031 16.32592010498047 70.06170654296875 18.26581192016602 C 69.7762451171875 19.82071876525879 69.24408721923828 21.35250473022461 68.47999572753906 22.81875038146973 C 67.19344329833984 25.29019546508789 65.65190124511719 26.76116561889648 65.63648986816406 26.77573394775391 L 65.40763854980469 26.9919490814209 L 65.50337982177734 27.29207229614258 L 70.71517944335938 43.55531692504883 L 64.118896484375 43.55604553222656 L 60.10733413696289 28.8673038482666 L 60.00674819946289 28.49902725219727 L 59.62499618530273 28.49902725219727 L 57.75607299804688 28.49902725219727 L 57.25607299804688 28.49902725219727 L 57.25607299804688 28.99902725219727 L 57.25607299804688 43.55686569213867 Z M 57.44279479980469 6.390472888946533 L 57.44279479980469 7.249965190887451 L 57.44279479980469 22.49271965026855 L 57.44279479980469 23.45131874084473 L 58.2249641418457 22.9055233001709 C 58.3700065612793 22.80846405029297 59.51320266723633 22.02486228942871 60.65856552124023 20.69222640991211 C 61.77922821044922 19.38858032226563 63.11511993408203 17.28824234008789 63.11511993408203 14.68564224243164 C 63.11511993408203 12.07608795166016 61.77294921875 10.07233428955078 60.64701080322266 8.850918769836426 C 59.44130325317383 7.544242382049561 58.20211791992188 6.822242259979248 58.18994903564453 6.815319061279297 L 57.44279479980469 6.390472888946533 Z" stroke="none"/><path d="M 120.8666687011719 43.05692291259766 L 120.8666687011719 36.87759017944336 L 115.5112991333008 36.87759017944336 L 114.5112991333008 36.87759017944336 L 114.5112991333008 35.87759017944336 L 114.5112991333008 1.185707688331604 L 108.6612701416016 1.185707688331604 L 108.6612701416016 43.05692291259766 L 120.8666687011719 43.05692291259766 M 104.5585174560547 43.05692291259766 L 104.5585174560547 36.91189193725586 L 99.01641845703125 36.91189193725586 L 98.01641845703125 36.91189193725586 L 98.01641845703125 35.91189193725586 L 98.01641845703125 25.7308235168457 L 98.01641845703125 24.7308235168457 L 99.01641845703125 24.7308235168457 L 104.5585174560547 24.7308235168457 L 104.5585174560547 18.81750679016113 L 99.01641845703125 18.81750679016113 L 98.01641845703125 18.81750679016113 L 98.01641845703125 17.81750679016113 L 98.01641845703125 7.868141174316406 L 98.01641845703125 6.868141174316406 L 99.01641845703125 6.868141174316406 L 104.5585174560547 6.868141174316406 L 104.5585174560547 1.185707688331604 L 92.30685424804688 1.185707688331604 L 92.30685424804688 43.05692291259766 L 104.5585174560547 43.05692291259766 M 83.67350769042969 43.05692291259766 L 90.14054107666016 1.185707688331604 L 85.37722015380859 1.185707688331604 L 81.07780456542969 26.83135795593262 L 79.1002197265625 26.79720687866211 L 75.71115112304688 1.185707688331604 L 70.04341888427734 1.185707688331604 L 76.50963592529297 43.05692291259766 L 83.67350769042969 43.05692291259766 M 26.66306686401367 43.05692291259766 L 26.66306686401367 37.36405944824219 L 26.66306686401367 1.185707688331604 L 18.21875953674316 1.185707688331604 L 14.44175148010254 22.11322402954102 L 12.47210121154785 22.1049747467041 L 8.876999855041504 1.185707688331604 L 1.000001072883606 1.185707688331604 L 1.000001072883606 43.05692291259766 L 6.850017547607422 43.05692291259766 L 6.850017547607422 23.98085784912109 L 8.829684257507324 23.78019142150879 L 12.77810859680176 43.05692291259766 L 14.71935081481934 43.05692291259766 L 19.21251678466797 23.75414085388184 L 21.18648529052734 23.98085784912109 L 21.18648529052734 43.05692291259766 L 26.66306686401367 43.05692291259766 M 56.75606918334961 43.05681991577148 L 56.75606918334961 28.9990234375 L 56.75606918334961 27.9990234375 L 57.75606918334961 27.9990234375 L 59.625 27.9990234375 L 60.38851928710938 27.9990234375 L 60.58966827392578 28.73557472229004 L 64.50064086914063 43.05600738525391 L 70.02993011474609 43.05539321899414 L 65.02723693847656 27.44467353820801 L 64.83681488037109 26.84505844116211 L 65.29271697998047 26.41267395019531 C 65.30758666992188 26.39855766296387 66.79388427734375 24.97490692138672 68.03658294677734 22.58769035339355 C 68.77760314941406 21.16574096679688 69.29348754882813 19.68130683898926 69.56995391845703 18.17542457580566 C 69.91473388671875 16.29965782165527 69.88690185546875 14.38144111633301 69.48723602294922 12.4740571975708 C 69.08883666992188 10.57264137268066 68.30763244628906 8.785774230957031 67.16521453857422 7.162924289703369 C 66.24418640136719 5.85404109954834 65.08688354492188 4.646374225616455 63.7255859375 3.573557615280151 C 61.79650497436523 2.053755521774292 59.96706008911133 1.226315379142761 59.42977523803711 1.000007629394531 L 50.90520095825195 1.000007629394531 L 50.90520095825195 43.05619812011719 L 56.75606918334961 43.05681991577148 M 56.94280242919922 5.531940937042236 L 58.43668365478516 6.380441188812256 C 58.44951629638672 6.387741088867188 59.73551940917969 7.125791072845459 61.01465225219727 8.512041091918945 C 62.20096588134766 9.798957824707031 63.61511611938477 11.91467475891113 63.61511611938477 14.68564128875732 C 63.61511611938477 17.4414234161377 62.21351623535156 19.6503734588623 61.03776931762695 21.01814079284668 C 59.85894012451172 22.38969039916992 58.67427825927734 23.20613479614258 58.5067024230957 23.31859970092773 L 56.94280242919922 24.40774154663086 L 56.94280242919922 22.49270820617676 L 56.94280242919922 7.249974250793457 L 56.94280242919922 5.531940937042236 M 48.76035308837891 43.05679321289063 L 43.05069732666016 1.000007629394531 L 33.94854736328125 1.000007629394531 L 28.66306686401367 37.43627548217773 L 28.66306686401367 43.05609130859375 L 33.98947906494141 43.05609130859375 L 34.80361938476563 37.22575759887695 L 34.92393493652344 36.36405944824219 L 35.79400253295898 36.36405944824219 L 41.77510070800781 36.36405944824219 L 42.64516830444336 36.36405944824219 L 42.76548385620117 37.22575759887695 L 43.57963943481445 43.05619049072266 L 48.76035308837891 43.05679321289063 M 37.7413330078125 9.689674377441406 L 38.62096786499023 9.689674377441406 L 39.48545074462891 9.689674377441406 L 39.61045074462891 10.54507446289063 L 42.5307502746582 30.52744102478027 L 42.69803619384766 31.67204093933105 L 41.54126739501953 31.67204093933105 L 36.05053329467773 31.67204093933105 L 34.91370010375977 31.67204093933105 L 35.05870056152344 30.54449081420898 L 37.6282844543457 10.56212425231934 L 37.7413330078125 9.689674377441406 M 121.8666687011719 44.05692291259766 L 107.6612701416016 44.05692291259766 L 107.6612701416016 0.1857076436281204 L 115.5112991333008 0.1857076436281204 L 115.5112991333008 35.87759017944336 L 121.8666687011719 35.87759017944336 L 121.8666687011719 44.05692291259766 Z M 105.5585174560547 44.05692291259766 L 91.30685424804688 44.05692291259766 L 91.30685424804688 0.1857076436281204 L 105.5585174560547 0.1857076436281204 L 105.5585174560547 7.868141174316406 L 99.01641845703125 7.868141174316406 L 99.01641845703125 17.81750679016113 L 105.5585174560547 17.81750679016113 L 105.5585174560547 25.7308235168457 L 99.01641845703125 25.7308235168457 L 99.01641845703125 35.91189193725586 L 105.5585174560547 35.91189193725586 L 105.5585174560547 44.05692291259766 Z M 84.53091430664063 44.05692291259766 L 75.65221405029297 44.05692291259766 L 68.87713623046875 0.1857076436281204 L 76.58753204345703 0.1857076436281204 L 80.09156799316406 26.66602516174316 L 84.53091430664063 0.1857076436281204 L 91.30685424804688 0.1857076436281204 L 84.53091430664063 44.05692291259766 Z M 57.75606918334961 44.05692291259766 L 57.75521850585938 44.05692291259766 L 49.90520095825195 44.05609130859375 L 49.90520095825195 7.641601769137196e-06 L 59.625 7.641601769137196e-06 C 59.64770126342773 0.008374308235943317 61.91194915771484 0.8716409802436829 64.34443664550781 2.788057565689087 C 65.78271484375 3.921524286270142 67.00651550292969 5.199707508087158 67.9830322265625 6.587457656860352 C 69.20433807373047 8.322357177734375 70.03955078125 10.23377418518066 70.46598815917969 12.26897430419922 C 70.89243316650391 14.30419063568115 70.92186737060547 16.35195732116699 70.553466796875 18.3562068939209 C 70.25907135009766 19.95979118347168 69.71067047119141 21.53910827636719 68.92340087890625 23.04982376098633 C 67.58436584472656 25.62207412719727 65.99551391601563 27.12442398071289 65.97953796386719 27.13949012756348 L 71.40045166015625 44.05524063110352 L 63.73715209960938 44.05609130859375 L 59.625 28.9990234375 L 57.75606918334961 28.9990234375 L 57.75606918334961 44.05609130859375 L 57.75606918334961 44.05692291259766 Z M 57.94280242919922 7.249974250793457 L 57.94280242919922 22.49270820617676 C 57.95120239257813 22.48685836791992 59.111083984375 21.72564125061035 60.27938461303711 20.36632347106934 C 61.34505081176758 19.12662506103516 62.61511611938477 17.13407516479492 62.61511611938477 14.68564128875732 C 62.61511611938477 12.23719120025635 61.34505081176758 10.34585762023926 60.27938461303711 9.189824104309082 C 59.12621688842773 7.940091133117676 57.95456695556641 7.256657600402832 57.94280242919922 7.249974250793457 Z M 49.90520095825195 44.05692291259766 L 49.90436935424805 44.05692291259766 L 42.70956802368164 44.05609130859375 L 41.77510070800781 37.36405944824219 L 35.79400253295898 37.36405944824219 L 34.85953521728516 44.05609130859375 L 27.66306686401367 44.05609130859375 L 27.66306686401367 37.36405944824219 L 33.08313369750977 7.641601769137196e-06 L 43.92411804199219 7.641601769137196e-06 L 49.90520095825195 44.05609130859375 L 49.90520095825195 44.05692291259766 Z M 38.6201171875 10.68967437744141 L 36.05053329467773 30.67204093933105 L 41.54126739501953 30.67204093933105 L 38.62096786499023 10.68967437744141 L 38.6201171875 10.68967437744141 Z M 27.66306686401367 44.05692291259766 L 20.18648529052734 44.05692291259766 L 20.18648529052734 23.98085784912109 L 15.51331806182861 44.05692291259766 L 11.96216773986816 44.05692291259766 L 7.850017547607422 23.98085784912109 L 7.850017547607422 44.05692291259766 L 1.017252543533687e-06 44.05692291259766 L 1.017252543533687e-06 0.1857076436281204 L 9.71980094909668 0.1857076436281204 L 13.45765113830566 21.93560791015625 L 17.38308525085449 0.1857076436281204 L 27.66306686401367 0.1857076436281204 L 27.66306686401367 37.36405944824219 L 27.66306686401367 44.05609130859375 L 27.66306686401367 44.05692291259766 Z" stroke="none" fill="#fff"/></g></g></svg>