<svg xmlns="http://www.w3.org/2000/svg" width="20.681" height="14.542" viewBox="0 0 20.681 14.542"><path d="M21.3,6.775a2.6,2.6,0,0,0-1.828-1.84c-1.613-.435-8.08-.435-8.08-.435s-6.467,0-8.08.435a2.6,2.6,0,0,0-1.828,1.84,27.261,27.261,0,0,0-.432,5.01,27.261,27.261,0,0,0,.432,5.01,2.56,2.56,0,0,0,1.828,1.811c1.613.435,8.08.435,8.08.435s6.467,0,8.08-.435A2.56,2.56,0,0,0,21.3,16.8a27.261,27.261,0,0,0,.432-5.01,27.261,27.261,0,0,0-.432-5.01ZM9.276,14.861V8.71l5.405,3.075L9.276,14.861Z" transform="translate(-1.05 -4.5)" fill="#fff"/></svg>